<mxfile host="app.diagrams.net" modified="2024-03-01T15:35:46.101Z" agent="Mozilla/5.0 (Macintosh; Intel Mac OS X 10_15_7) AppleWebKit/537.36 (KHTML, like Gecko) Chrome/121.0.0.0 Safari/537.36" etag="wwUYhjx1WEYGxmgEtKdE" version="23.1.1" type="device">
  <diagram name="Page-1" id="iEQOybTbU-JFzvXTw8KN">
    <mxGraphModel dx="1912" dy="1048" grid="0" gridSize="10" guides="1" tooltips="1" connect="1" arrows="1" fold="1" page="1" pageScale="1" pageWidth="850" pageHeight="1100" math="0" shadow="0">
      <root>
        <mxCell id="0" />
        <mxCell id="1" parent="0" />
        <mxCell id="kPfhpFF3m6Uqg2a4LnId-1" value="&lt;b&gt;Koka++&amp;nbsp;&lt;/b&gt;" style="rounded=0;whiteSpace=wrap;html=1;fillColor=#f8cecc;strokeColor=#b85450;" vertex="1" parent="1">
          <mxGeometry x="220" y="252" width="245" height="76" as="geometry" />
        </mxCell>
        <mxCell id="kPfhpFF3m6Uqg2a4LnId-4" value="Type Safety" style="ellipse;whiteSpace=wrap;html=1;fillColor=#d5e8d4;strokeColor=#82b366;" vertex="1" parent="1">
          <mxGeometry x="584" y="22" width="121" height="56" as="geometry" />
        </mxCell>
        <mxCell id="kPfhpFF3m6Uqg2a4LnId-6" value="Advanced Safety:&lt;br&gt;(1) No division by zero&lt;br&gt;(2) No out-of-bound memory accesses" style="ellipse;whiteSpace=wrap;html=1;fillColor=#fff2cc;strokeColor=#d6b656;" vertex="1" parent="1">
          <mxGeometry x="553" y="107" width="183" height="80" as="geometry" />
        </mxCell>
        <mxCell id="kPfhpFF3m6Uqg2a4LnId-7" value="Termination" style="ellipse;whiteSpace=wrap;html=1;fillColor=#d5e8d4;strokeColor=#82b366;" vertex="1" parent="1">
          <mxGeometry x="586.5" y="216" width="116.5" height="45" as="geometry" />
        </mxCell>
        <mxCell id="kPfhpFF3m6Uqg2a4LnId-8" value="Safe resource management?" style="ellipse;whiteSpace=wrap;html=1;fillColor=#f8cecc;strokeColor=#b85450;" vertex="1" parent="1">
          <mxGeometry x="574" y="289" width="147" height="61" as="geometry" />
        </mxCell>
        <mxCell id="kPfhpFF3m6Uqg2a4LnId-9" value="Stack protection" style="ellipse;whiteSpace=wrap;html=1;fillColor=#f8cecc;strokeColor=#b85450;" vertex="1" parent="1">
          <mxGeometry x="576.75" y="376" width="136" height="50" as="geometry" />
        </mxCell>
        <mxCell id="kPfhpFF3m6Uqg2a4LnId-10" value="Side-channel attack protection" style="ellipse;whiteSpace=wrap;html=1;fillColor=#f8cecc;strokeColor=#b85450;" vertex="1" parent="1">
          <mxGeometry x="572.75" y="464" width="143.5" height="51" as="geometry" />
        </mxCell>
        <mxCell id="kPfhpFF3m6Uqg2a4LnId-11" value="&lt;b&gt;C code&lt;/b&gt;" style="rounded=0;whiteSpace=wrap;html=1;" vertex="1" parent="1">
          <mxGeometry x="220" y="613" width="245" height="76" as="geometry" />
        </mxCell>
        <mxCell id="kPfhpFF3m6Uqg2a4LnId-12" value="&lt;b&gt;BPF Byte code&lt;/b&gt;" style="rounded=0;whiteSpace=wrap;html=1;fillColor=#d5e8d4;strokeColor=#82b366;" vertex="1" parent="1">
          <mxGeometry x="220" y="943" width="245" height="76" as="geometry" />
        </mxCell>
        <mxCell id="kPfhpFF3m6Uqg2a4LnId-13" value="&lt;b&gt;Koka++ compiler&lt;/b&gt;" style="rounded=1;whiteSpace=wrap;html=1;fillColor=#f8cecc;strokeColor=#b85450;" vertex="1" parent="1">
          <mxGeometry x="281.5" y="431" width="120" height="60" as="geometry" />
        </mxCell>
        <mxCell id="kPfhpFF3m6Uqg2a4LnId-14" value="&lt;b&gt;C compiler&lt;/b&gt;" style="rounded=1;whiteSpace=wrap;html=1;fillColor=#d5e8d4;strokeColor=#82b366;" vertex="1" parent="1">
          <mxGeometry x="282.5" y="775" width="120" height="60" as="geometry" />
        </mxCell>
        <mxCell id="kPfhpFF3m6Uqg2a4LnId-15" value="" style="endArrow=classic;html=1;rounded=0;" edge="1" parent="1">
          <mxGeometry width="50" height="50" relative="1" as="geometry">
            <mxPoint x="342" y="506" as="sourcePoint" />
            <mxPoint x="342" y="603" as="targetPoint" />
          </mxGeometry>
        </mxCell>
        <mxCell id="kPfhpFF3m6Uqg2a4LnId-17" value="" style="endArrow=classic;html=1;rounded=0;" edge="1" parent="1">
          <mxGeometry width="50" height="50" relative="1" as="geometry">
            <mxPoint x="340" y="841" as="sourcePoint" />
            <mxPoint x="340" y="938" as="targetPoint" />
          </mxGeometry>
        </mxCell>
        <mxCell id="kPfhpFF3m6Uqg2a4LnId-18" value="" style="endArrow=classic;html=1;rounded=0;" edge="1" parent="1">
          <mxGeometry width="50" height="50" relative="1" as="geometry">
            <mxPoint x="341" y="696" as="sourcePoint" />
            <mxPoint x="341" y="768" as="targetPoint" />
          </mxGeometry>
        </mxCell>
        <mxCell id="kPfhpFF3m6Uqg2a4LnId-19" value="" style="endArrow=classic;html=1;rounded=0;" edge="1" parent="1">
          <mxGeometry width="50" height="50" relative="1" as="geometry">
            <mxPoint x="340" y="341" as="sourcePoint" />
            <mxPoint x="340" y="413" as="targetPoint" />
          </mxGeometry>
        </mxCell>
        <mxCell id="kPfhpFF3m6Uqg2a4LnId-21" value="Prove:&lt;br&gt;&lt;b&gt;&amp;nbsp;If the souce program written in Koka is safe then &lt;br&gt;Byte code program satisfies all the properties mentioned at source-level&lt;/b&gt;" style="ellipse;whiteSpace=wrap;html=1;fillColor=#f8cecc;strokeColor=#b85450;" vertex="1" parent="1">
          <mxGeometry x="454" y="721" width="367" height="137" as="geometry" />
        </mxCell>
        <mxCell id="kPfhpFF3m6Uqg2a4LnId-22" value="" style="endArrow=none;html=1;rounded=0;exitX=1;exitY=0.5;exitDx=0;exitDy=0;" edge="1" parent="1" source="kPfhpFF3m6Uqg2a4LnId-1">
          <mxGeometry width="50" height="50" relative="1" as="geometry">
            <mxPoint x="347" y="250" as="sourcePoint" />
            <mxPoint x="584" y="51" as="targetPoint" />
          </mxGeometry>
        </mxCell>
        <mxCell id="kPfhpFF3m6Uqg2a4LnId-23" value="" style="endArrow=none;html=1;rounded=0;entryX=0;entryY=0.5;entryDx=0;entryDy=0;" edge="1" parent="1" target="kPfhpFF3m6Uqg2a4LnId-6">
          <mxGeometry width="50" height="50" relative="1" as="geometry">
            <mxPoint x="467" y="288" as="sourcePoint" />
            <mxPoint x="594" y="61" as="targetPoint" />
          </mxGeometry>
        </mxCell>
        <mxCell id="kPfhpFF3m6Uqg2a4LnId-24" value="" style="endArrow=none;html=1;rounded=0;entryX=0;entryY=0.5;entryDx=0;entryDy=0;exitX=1;exitY=0.5;exitDx=0;exitDy=0;" edge="1" parent="1" source="kPfhpFF3m6Uqg2a4LnId-1" target="kPfhpFF3m6Uqg2a4LnId-7">
          <mxGeometry width="50" height="50" relative="1" as="geometry">
            <mxPoint x="347" y="249" as="sourcePoint" />
            <mxPoint x="563" y="157" as="targetPoint" />
          </mxGeometry>
        </mxCell>
        <mxCell id="kPfhpFF3m6Uqg2a4LnId-25" value="" style="endArrow=none;html=1;rounded=0;exitX=1;exitY=0.5;exitDx=0;exitDy=0;" edge="1" parent="1" source="kPfhpFF3m6Uqg2a4LnId-1">
          <mxGeometry width="50" height="50" relative="1" as="geometry">
            <mxPoint x="357" y="259" as="sourcePoint" />
            <mxPoint x="572" y="315" as="targetPoint" />
          </mxGeometry>
        </mxCell>
        <mxCell id="kPfhpFF3m6Uqg2a4LnId-26" value="" style="endArrow=none;html=1;rounded=0;exitX=1;exitY=0.5;exitDx=0;exitDy=0;" edge="1" parent="1" source="kPfhpFF3m6Uqg2a4LnId-1">
          <mxGeometry width="50" height="50" relative="1" as="geometry">
            <mxPoint x="475" y="300" as="sourcePoint" />
            <mxPoint x="574" y="398" as="targetPoint" />
          </mxGeometry>
        </mxCell>
        <mxCell id="kPfhpFF3m6Uqg2a4LnId-27" value="" style="endArrow=none;html=1;rounded=0;" edge="1" parent="1">
          <mxGeometry width="50" height="50" relative="1" as="geometry">
            <mxPoint x="468" y="292" as="sourcePoint" />
            <mxPoint x="572" y="488" as="targetPoint" />
          </mxGeometry>
        </mxCell>
        <mxCell id="kPfhpFF3m6Uqg2a4LnId-30" value="&lt;b&gt;BPF Byte code in Coq&lt;/b&gt;" style="rounded=0;whiteSpace=wrap;html=1;fillColor=#f8cecc;strokeColor=#b85450;" vertex="1" parent="1">
          <mxGeometry x="516" y="943" width="245" height="76" as="geometry" />
        </mxCell>
        <mxCell id="kPfhpFF3m6Uqg2a4LnId-32" value="" style="endArrow=none;html=1;rounded=0;" edge="1" parent="1">
          <mxGeometry width="50" height="50" relative="1" as="geometry">
            <mxPoint x="635" y="863" as="sourcePoint" />
            <mxPoint x="635" y="934" as="targetPoint" />
          </mxGeometry>
        </mxCell>
        <mxCell id="kPfhpFF3m6Uqg2a4LnId-34" value="" style="shape=flexArrow;endArrow=classic;startArrow=classic;html=1;rounded=0;entryX=0;entryY=0.5;entryDx=0;entryDy=0;exitX=1;exitY=0.5;exitDx=0;exitDy=0;" edge="1" parent="1" source="kPfhpFF3m6Uqg2a4LnId-12" target="kPfhpFF3m6Uqg2a4LnId-30">
          <mxGeometry width="100" height="100" relative="1" as="geometry">
            <mxPoint x="465" y="992" as="sourcePoint" />
            <mxPoint x="532" y="918" as="targetPoint" />
          </mxGeometry>
        </mxCell>
      </root>
    </mxGraphModel>
  </diagram>
</mxfile>
